#!OML:ASF F:\VICON\USERDATA\INSTALL\rory3\rory3.ASF
:FULLY-SPECIFIED
:DEGREES
99
root 0.5611320031300207 17.75799671249306 45.486158690209905 -2.00642394679878 -0.6588789281961742 2.599945496978061
lfemur 6.2988915296876336 -2.9681043259966122 -27.221940777924615
ltibia 17.81218828337761
lfoot -14.62464525141846 1.802692607546547
ltoes -1.0424958815279979
rfemur -27.94057026687161 3.4832963069552885 17.95916333319962
rtibia 30.278143579655808
rfoot -9.45635139218744 -14.544044185151648
rtoes -0.2843910705837467
lowerback 9.628511758365718 -0.5345559494001805 -3.6188857031743193
upperback 0.7047149828215502 -1.072162594406235 0.9159158236038516
thorax -4.614849726854734 -0.45205812712873816 3.1048314228279525
lowerneck -16.5308579565476 -2.77221174099317 -3.4635398211030646
upperneck 20.283271356622684 -3.5214464755270405 2.172141180292725
head 9.166249075042174 -1.665932041027886 0.8251054644644179
lclavicle -1.6981433131154762e-15 1.1422407242032557e-15
lhumerus -21.596204843288575 -4.297725169559192 82.3201994813585
lradius 26.98607185168715
lwrist 7.572234648671498
lhand -27.919569903980534 22.17857876202374
lfingers 7.12502
lthumb -1.3082621082752945 52.14926793212785
rclavicle -1.698143313115476e-15 1.1422407242032557e-15
rhumerus -29.73633413826988 -16.5862652960169 -80.49987442116512
rradius 26.1064360445629
rwrist 5.474058849942663
rhand -16.648169053419938 23.331156160284337
rfingers 7.12502
rthumb 9.574783150877058 -6.429760437026081
100
root 0.49558364457949555 17.710709079425175 45.76060686532397 -1.6348664350290723 -0.15360413758960645 2.817595917482461
lfemur 9.020796665887143 -3.0766506822749493 -27.346972073751864
ltibia 15.608669946793174
lfoot -14.709627412302961 1.1417865643406921
ltoes -3.3568914302265935
rfemur -27.730170912674176 4.907801250815604 17.032246729873172
rtibia 23.52688153259566
rfoot -9.624018274372299 -15.502819312621062
rtoes -1.4584433184479155
lowerback 9.425890025992363 -0.7749226740042446 -4.116190189078314
upperback 0.6223573683094583 -1.4339655791227393 0.9785083833581142
thorax -4.559611326405495 -0.6219659675032623 3.430315795997144
lowerneck -16.63107441174561 -2.771809483735525 -3.4707254397734557
upperneck 20.30551003086476 -3.5242609745759332 2.210469521608069
head 9.188042029749429 -1.6646044540309677 0.8352591981361206
lclavicle -1.8397724534066598e-15 1.0114251952116703e-15
lhumerus -20.356006016521597 -5.096591370027367 82.21356559753649
lradius 28.109991924140715
lwrist 8.079721612766619
lhand -28.169547403401083 21.938176298380455
lfingers 7.12502
lthumb -1.5496895397393828 51.90528926704321
rclavicle -1.8397724534066598e-15 1.0114251952116703e-15
rhumerus -30.22318792934938 -17.513616013203666 -80.02880309899338
rradius 25.29929683228194
rwrist 6.200279998121256
rhand -16.73356053745176 23.759150431101897
rfingers 7.12502
rthumb 9.492391250538256 -6.005825625843087
101
root 0.44125051242369207 17.661036692007304 46.75923590342111 -1.4257796203938171 0.25838969108589493 2.9280682477196573
lfemur 11.65001025021703 -3.4276322121526794 -27.112216045409667
ltibia 15.522641184683188
lfoot -14.300972606373918 0.6224015037777453
ltoes -6.251404173747675
rfemur -27.242188853343222 5.610333577429983 17.071882509087136
rtibia 21.241885552114674
rfoot -9.13325054539886 -14.522824277887052
rtoes -2.0911867220881413
lowerback 9.33157944821579 -0.9053513253132269 -4.2352314215409566
upperback 0.578681019620094 -1.6133397065141009 1.1269710424643145
thorax -4.519422156183659 -0.7075139981974201 3.7335662940216756
lowerneck -16.715408880877774 -2.7559924898259034 -3.439144612618965
upperneck 20.38976003833171 -3.498426963873345 2.192901301525855
head 9.232379109413682 -1.6547109583183348 0.830208936076241
lclavicle -1.4682028360308349e-15 1.353470248232458e-15
lhumerus -19.358965936226426 -5.322809768084492 82.2363184489982
lradius 29.085854674890005
lwrist 8.380508370422664
lhand -28.58369845400799 21.522859589954066
lfingers 7.12502
lthumb -1.9496519401189514 51.48468557208921
rclavicle -1.4682028360308349e-15 1.353470248232458e-15
rhumerus -30.64865474268301 -18.634422412981117 -79.26795501793461
rradius 24.450396488539777
rwrist 7.3113440343993235
rhand -16.86043372961645 24.10485761253804
rfingers 7.12502
rthumb 9.369978821790491 -5.668062087600656
102
root 0.38685983759627063 17.61533461574667 47.55005552760946 -1.4112957890338564 0.3886120506791211 2.6616596310372267
lfemur 13.209513026237882 -4.0883439029100455 -26.782053754201264
ltibia 16.782944814577426
lfoot -13.435258942577288 -0.18538814741181042
ltoes -9.739175074431602
rfemur -27.271257446176044 5.495895268005985 17.798943152994347
rtibia 22.214375924326646
rfoot -8.091750487628973 -12.299786984187506
rtoes -2.0618731347849777
lowerback 9.301519308580662 -1.0142749145949232 -4.096717833780482
upperback 0.5528462705599622 -1.7346524316112815 1.3291264825937188
thorax -4.518052297197463 -0.7682403034418912 3.8633236422091093
lowerneck -16.793009512446716 -2.7207059135285463 -3.403983833140321
upperneck 20.509531456739516 -3.4361698662582514 2.0607853405330445
head 9.282041833175722 -1.6344654457662962 0.7969938088247527
lclavicle -1.4488426056994629e-15 1.3715384286442136e-15
lhumerus -18.974693431682745 -5.250488355965934 82.36401011597867
lradius 29.78130923577998
lwrist 8.446639179635152
lhand -29.19547900280723 20.90177711025243
lfingers 7.12502
lthumb -2.5404734027166387 50.85711960116155
rclavicle -1.4488426056994629e-15 1.3715384286442136e-15
rhumerus -31.17480797914412 -20.07235542813714 -78.40662966296324
rradius 23.51225106183887
rwrist 8.554592405356704
rhand -17.013843595171007 24.176331891347125
rfingers 7.12502
rthumb 9.221962349825143 -5.604420951280904
103
root 0.3455755258885562 17.597889443898385 48.600695969931635 -1.5172229768630325 0.39941729384471625 2.1028026014101617
lfemur 13.951812650920132 -4.7268621371134305 -25.86821723212399
ltibia 20.338638273176038
lfoot -11.063516941029498 -1.44793725222087
ltoes -12.663766066551013
rfemur -26.823484044025502 5.065016493219395 19.360455241194536
rtibia 25.64984609847744
rfoot -6.406051320208711 -9.38046691124013
rtoes -0.7314117587595237
lowerback 9.328313692924297 -1.0434470676382084 -3.4717086426845425
upperback 0.5348171209445848 -1.6976019898856585 1.6226837430052063
thorax -4.5400753936356635 -0.759057045826105 3.8856451381751786
lowerneck -16.790493947847253 -2.6562774307671697 -3.3269113229798135
upperneck 20.692104289200937 -3.3238221968957893 1.85041835078873
head 9.33876219257142 -1.5985187587485383 0.7489648746660214
lclavicle -1.0802244508748507e-15 1.7114816610233542e-15
lhumerus -19.039281972302376 -4.630489912591978 82.63323743321223
lradius 30.32417042173983
lwrist 8.455254937992512
lhand -29.690790955087266 20.485563343995114
lfingers 7.12502
lthumb -3.018810528625769 50.43499666005788
rclavicle -1.0802244508748507e-15 1.7114816610233542e-15
rhumerus -31.657358787740232 -21.499404319822943 -77.34927179416901
rradius 22.66579200172906
rwrist 10.038544956157923
rhand -17.109784448762284 24.104387405843017
rfingers 7.12502
rthumb 9.12940117950987 -5.682598982535291
104
root 0.29852056469988697 17.609608869161473 48.670880630612956 -1.764570736435784 0.18265320070675006 1.0963373769907494
lfemur 12.788058283559575 -5.194708805485748 -24.71348480774352
ltibia 25.015594387521947
lfoot -7.391825679079172 -3.670178192522961
ltoes -14.016617124995681
rfemur -26.412539795134986 4.599844346208044 20.997835245050837
rtibia 28.913271744221717
rfoot -5.224133978611861 -7.045239814077857
rtoes 1.4662924920468903
lowerback 9.357566670365399 -1.0874552837717584 -2.668064741148517
upperback 0.4912058260969404 -1.6556630300912092 1.909688147667495
thorax -4.610130102984602 -0.7505461034876364 3.667504909651017
lowerneck -16.69628824950928 -2.5905184828465444 -3.25811903772259
upperneck 20.86949661214656 -3.210553328819074 1.5807650736717949
head 9.368594124418493 -1.564038527574926 0.6863285912128136
lclavicle -1.3414535612342341e-15 1.4712458105089744e-15
lhumerus -19.85921982604635 -3.9266521132025725 82.92943730003299
lradius 30.51448476190439
lwrist 8.350093538074425
lhand -29.90824940114157 20.293188284700943
lfingers 7.12502
lthumb -3.2288078497808206 50.23968155641798
rclavicle -1.3414535612342341e-15 1.4712458105089746e-15
rhumerus -32.21255617829276 -22.949288381499965 -76.45817496325058
rradius 21.895879772827247
rwrist 11.232743144772986
rhand -17.189190370038382 23.808388526252923
rfingers 7.12502
rthumb 9.052787433183353 -5.981764152982594
105
root 0.26003633187694064 17.661014145450096 48.95180354912674 -2.0432272868057386 0.04315464312648354 -0.054411663749289296
lfemur 10.510489354886417 -5.16554265936177 -22.85732607888932
ltibia 31.791235412485605
lfoot -2.1871440255451264 -6.309668588594959
ltoes -12.588704716969833
rfemur -24.91034107434485 4.451609328105646 22.978770809241915
rtibia 31.80046540216866
rfoot -4.709025639968804 -5.47233278648033
rtoes 4.4308487476435285
lowerback 9.435207940986999 -1.0488616459442848 -1.5393866836921146
upperback 0.45243916754335384 -1.4702173932410338 2.2219255317172726
thorax -4.692257528351882 -0.6771138588132604 3.3904863494208484
lowerneck -16.47951273125878 -2.5416011033966948 -3.172850001039322
upperneck 21.03284203457228 -3.12778113175937 1.3822214412150131
head 9.376113829699143 -1.5405160925511967 0.6421577081562143
lclavicle -1.181721853654492e-15 1.6183805741282994e-15
lhumerus -20.88063613025762 -3.102538930473311 83.31752925166859
lradius 30.546824696183684
lwrist 8.22888513531224
lhand -29.602722514217746 20.554604711820595
lfingers 7.12502
lthumb -2.9337257851357528 50.5019695003738
rclavicle -1.181721853654492e-15 1.6183805741282996e-15
rhumerus -32.530390020377965 -23.788183499161633 -75.78267731037917
rradius 21.488394253324792
rwrist 12.0616900417616
rhand -17.170239013973696 23.564022063260353
rfingers 7.12502
rthumb 9.07108381457723 -6.226479115944944
